<svg xmlns="http://www.w3.org/2000/svg" xmlns:xlink="http://www.w3.org/1999/xlink" width="849.4" height="144.022" viewBox="0 0 849.4 144.022">
  <defs>
    <clipPath id="clip-path">
      <rect id="Rectangle_1725" data-name="Rectangle 1725" width="849.4" height="144.022" fill="#fff"/>
    </clipPath>
  </defs>
  <g id="Group_3949" data-name="Group 3949" transform="translate(0 0)">
    <g id="Group_3948" data-name="Group 3948" transform="translate(0 0)" clip-path="url(#clip-path)">
      <path id="Path_6649" data-name="Path 6649" d="M70.454,29.442H62.035a.61.61,0,0,0-.689.689V45.175c0,.919-.026,1.691-.069,2.313A3.5,3.5,0,0,1,60.862,49a2.022,2.022,0,0,1-1.035.861,5.6,5.6,0,0,1-2,.276,6.964,6.964,0,0,1-3.21-.723Q53.2,48.694,53.2,46.348V35.1a.611.611,0,0,0-.691-.691H44.094a.611.611,0,0,0-.691.691V45.244a21.487,21.487,0,0,1-.1,2.313,3.511,3.511,0,0,1-.447,1.482,2.069,2.069,0,0,1-1.139.828,6.536,6.536,0,0,1-2.1.276,6.19,6.19,0,0,1-3.036-.759,3.074,3.074,0,0,1-1.381-2.967V35.1a.611.611,0,0,0-.689-.691H26.084a.61.61,0,0,0-.691.691V56.56q0,4.277-2,6.245a7.54,7.54,0,0,1-5.521,1.966,9.437,9.437,0,0,1-2.864-.448,6.827,6.827,0,0,1-2.552-1.483,7.4,7.4,0,0,1-1.829-2.692,10.566,10.566,0,0,1-.689-4.071,16.768,16.768,0,0,1,.828-5.45,34.937,34.937,0,0,1,1.8-4.347.9.9,0,0,0,.1-.519c-.024-.159-.151-.284-.379-.378L4.831,42.966q-.759-.207-1.037.207A24.763,24.763,0,0,0,1,49.728a26.9,26.9,0,0,0-1,7.109,18.116,18.116,0,0,0,1.414,7.486,13.728,13.728,0,0,0,3.83,5.106,15.766,15.766,0,0,0,5.625,2.9,24.27,24.27,0,0,0,6.8.931,24.555,24.555,0,0,0,6.867-.931,15.083,15.083,0,0,0,5.554-2.9,13.551,13.551,0,0,0,3.692-5.037,18.428,18.428,0,0,0,1.347-7.417v-.9a6.125,6.125,0,0,0,2.483,1.794,9.84,9.84,0,0,0,3.725.622h2.692a15.249,15.249,0,0,0,5.347-.759,5.253,5.253,0,0,0,2.933-2.9,6.831,6.831,0,0,0,2.588,2.657,8.527,8.527,0,0,0,4.383,1H63.07q4.347,0,6.212-2.1T71.145,49.8V30.131a.611.611,0,0,0-.691-.689" transform="translate(0 17.876)" fill="#fff"/>
      <path id="Path_6650" data-name="Path 6650" d="M68.561,58.7V51.943a.611.611,0,0,0-.691-.691h-6.9a.609.609,0,0,0-.688.691V58.7a.609.609,0,0,0,.688.691h6.9a.612.612,0,0,0,.691-.691" transform="translate(36.601 31.118)" fill="#fff"/>
      <path id="Rectangle_1723" data-name="Rectangle 1723" d="M.429,0H7.922a.429.429,0,0,1,.429.429V7.712a.43.43,0,0,1-.43.43H.43A.43.43,0,0,1,0,7.712V.429A.429.429,0,0,1,.429,0Z" transform="translate(107.506 82.372)" fill="#fff"/>
      <path id="Path_6651" data-name="Path 6651" d="M87.288,28.181h6.97a.611.611,0,0,0,.691-.689V20.728a.611.611,0,0,0-.691-.689h-6.97a.609.609,0,0,0-.689.689v6.763a.609.609,0,0,0,.689.689" transform="translate(52.581 12.167)" fill="#fff"/>
      <path id="Path_6652" data-name="Path 6652" d="M80.678,28.181h6.9a.611.611,0,0,0,.691-.689V20.728a.611.611,0,0,0-.691-.689h-6.9a.61.61,0,0,0-.691.689v6.763a.61.61,0,0,0,.691.689" transform="translate(48.566 12.167)" fill="#fff"/>
      <path id="Path_6653" data-name="Path 6653" d="M141.755,61.793A5.939,5.939,0,0,0,145,64.621a14.8,14.8,0,0,0,4.362.609c.045,0,.076.013.122.013h7.452q4.349,0,6.21-2.105t1.864-6.589V19.01a.61.61,0,0,0-.689-.688H155.9a.609.609,0,0,0-.691.688V53.236a4.031,4.031,0,0,1-.792,2.864,3.447,3.447,0,0,1-2.52.794h-3.931a6.325,6.325,0,0,1-3.795-.966,3.587,3.587,0,0,1-1.451-2.761V19.01a.608.608,0,0,0-.688-.688h-8.42a.608.608,0,0,0-.689.688v31.6q0,1.519-.069,2.692a6.48,6.48,0,0,1-.381,1.967,2.356,2.356,0,0,1-1,1.207,3.6,3.6,0,0,1-1.863.415H119.016a9.1,9.1,0,0,0-1.14.069,13.45,13.45,0,0,0,3.867-4.245,11.313,11.313,0,0,0,1.517-5.831,11.594,11.594,0,0,0-1.07-5.106,9.917,9.917,0,0,0-3.07-3.692,14.739,14.739,0,0,0-4.831-2.277,25.771,25.771,0,0,0-12.7,0,14.708,14.708,0,0,0-4.831,2.277,9.921,9.921,0,0,0-3.071,3.692,12.433,12.433,0,0,0,.413,10.937,12.425,12.425,0,0,0,3.83,4.175H86.964a6.191,6.191,0,0,1-3.761-1,3.606,3.606,0,0,1-1.485-2.727V36.882a.608.608,0,0,0-.688-.688H72.68a.608.608,0,0,0-.689.688V51.235a12.182,12.182,0,0,1-.553,4.383q-.554,1.278-2.76,1.276H64.4c-.039,0-.069.008-.106.01s-.064-.01-.1-.01H62.33a3.443,3.443,0,0,1-2.518-.794,4.023,4.023,0,0,1-.794-2.864V19.01a.608.608,0,0,0-.689-.688H49.978a.608.608,0,0,0-.689.688V56.549q0,4.486,1.863,6.589t6.212,2.105h6.83c.04,0,.072-.006.111-.008s.061.008.095.008h7.107a22.609,22.609,0,0,0,5.969-.622,5.16,5.16,0,0,0,3.279-2.829A5.939,5.939,0,0,0,84,64.621a14.91,14.91,0,0,0,4.555.622H98.557q2,0,4.588-.207a12.089,12.089,0,0,0,4.865-1.448,9.626,9.626,0,0,0,4.209,1.448q2.208.207,4.693.207H133.4a15.906,15.906,0,0,0,5.349-.725,5.415,5.415,0,0,0,3-2.726m-29.881-9.074a12.248,12.248,0,0,1-3.933,3,12.272,12.272,0,0,1-3.934-3,7.443,7.443,0,0,1-1.655-5.071,5.38,5.38,0,0,1,1.691-4.417,6.146,6.146,0,0,1,7.763,0,5.322,5.322,0,0,1,1.726,4.417,7.436,7.436,0,0,1-1.657,5.071" transform="translate(29.927 11.124)" fill="#fff"/>
      <path id="Path_6654" data-name="Path 6654" d="M160.167,66.734V59.971a.612.612,0,0,0-.691-.691h-6.97a.609.609,0,0,0-.688.691v6.763a.609.609,0,0,0,.688.689h6.97a.611.611,0,0,0,.691-.689" transform="translate(92.18 35.993)" fill="#fff"/>
      <path id="Path_6655" data-name="Path 6655" d="M153.485,66.734V59.971a.612.612,0,0,0-.691-.691h-6.9a.61.61,0,0,0-.689.691v6.763a.609.609,0,0,0,.689.689h6.9a.611.611,0,0,0,.691-.689" transform="translate(88.165 35.993)" fill="#fff"/>
      <path id="Path_6656" data-name="Path 6656" d="M172.258,28.181h8.557a.61.61,0,0,0,.689-.689V20.728a.61.61,0,0,0-.689-.689h-8.557a.61.61,0,0,0-.691.689v6.763a.61.61,0,0,0,.691.689" transform="translate(104.171 12.167)" fill="#fff"/>
      <path id="Path_6657" data-name="Path 6657" d="M253.505,39.022q-4.38-4-12.8-4a29.928,29.928,0,0,0-7.8,1,46.585,46.585,0,0,0-6.832,2.38V19.011a.611.611,0,0,0-.691-.689h-8.349q-.552,0-.689.689V49.856q0,1.449-.069,2.724a7.217,7.217,0,0,1-.448,2.244,3.567,3.567,0,0,1-1.069,1.519,3.024,3.024,0,0,1-1.932.551h-4.277a6.2,6.2,0,0,1-3.762-1,3.6,3.6,0,0,1-1.483-2.726V36.883a.611.611,0,0,0-.689-.689h-6.348c-.506,0-1.094.024-1.76.069s-1,.252-1,.62v14.49a10.961,10.961,0,0,1-.587,4.314q-.586,1.208-2.724,1.207H187.92c-.043,0-.076.021-.117.023-.077,0-.146-.023-.228-.023h-8.144a17.243,17.243,0,0,1-3.828-.415,32.821,32.821,0,0,1-3.692-1.069q-1.866-.653-3.8-1.483t-4.14-1.655c-.415-.138-.689.024-.828.482l-2.208,6.832a.576.576,0,0,0,.413.826q3.52,1.314,5.969,2.244a38.528,38.528,0,0,1,3.968,1.724,7.608,7.608,0,0,1,2.208,1.588,2.7,2.7,0,0,1,.691,1.829A2.548,2.548,0,0,1,173.876,69a2.513,2.513,0,0,1-1.07,1,7.177,7.177,0,0,1-2.139.654,20.366,20.366,0,0,1-3.449.243H155.625A19.5,19.5,0,0,1,152,70.557a9.56,9.56,0,0,1-3.279-1.242,7.052,7.052,0,0,1-2.38-2.483,7.817,7.817,0,0,1-.932-4,13.267,13.267,0,0,1,.828-4.553,23.8,23.8,0,0,1,2-4.209.574.574,0,0,0-.206-.9l-7.039-3.52q-.689-.415-1.033.207a30.414,30.414,0,0,0-3.071,6.315,21.9,21.9,0,0,0-1.345,7.555,18.1,18.1,0,0,0,1.1,6.485,12.3,12.3,0,0,0,3.417,4.934,15.852,15.852,0,0,0,5.866,3.139,28.628,28.628,0,0,0,8.452,1.106h15.389q7.519,0,11-2.83a8.853,8.853,0,0,0,3.486-7.176,7.061,7.061,0,0,0-.413-2.485,9.755,9.755,0,0,0-.76-1.655h4.486c.037,0,.067-.008.1-.01s.064.01.1.01H193.3a20.054,20.054,0,0,0,5.8-.656,5.564,5.564,0,0,0,3.243-2.793,5.927,5.927,0,0,0,3.243,2.827,14.219,14.219,0,0,0,3.61.563,3.638,3.638,0,0,0,.667.059h6.279a36.8,36.8,0,0,0,4.278-.207,5.2,5.2,0,0,0,2.9-1.241,4.789,4.789,0,0,0,3.933,1.448h16.285a32.15,32.15,0,0,0,6.66-.587,9.652,9.652,0,0,0,4.45-2.105,8.512,8.512,0,0,0,2.485-4.174,25.281,25.281,0,0,0,.759-6.8q0-8.556-4.383-12.558m-6.072,15.32a2.753,2.753,0,0,1-1.207,1.724,5.75,5.75,0,0,1-2.518.689q-1.622.14-4.175.138H225.87a16.356,16.356,0,0,0,.207-2.69V46.475a45.637,45.637,0,0,1,5.969-2.139,24.664,24.664,0,0,1,6.866-.966,16,16,0,0,1,4.312.484,6.1,6.1,0,0,1,2.692,1.482,5.548,5.548,0,0,1,1.414,2.451,12.111,12.111,0,0,1,.413,3.311,13.267,13.267,0,0,1-.31,3.245" transform="translate(82.299 11.124)" fill="#fff"/>
      <path id="Path_6658" data-name="Path 6658" d="M245.8,66.555V65.243h12.142q4.349,0,6.212-2.1t1.863-6.591V19.011a.611.611,0,0,0-.689-.689H256.91a.611.611,0,0,0-.691.689V53.238a4.034,4.034,0,0,1-.792,2.864,3.452,3.452,0,0,1-2.518.792H245.8V50.478a19.951,19.951,0,0,0-1.209-7.419,11.949,11.949,0,0,0-3.277-4.76,12.482,12.482,0,0,0-4.831-2.52,21.84,21.84,0,0,0-5.8-.759,19.261,19.261,0,0,0-5.624.828,12.836,12.836,0,0,0-4.83,2.692,13.269,13.269,0,0,0-3.382,4.9,19.24,19.24,0,0,0-1.278,7.452q0,7.866,3.624,11.11t10.386,3.242h6.623a8.728,8.728,0,0,1-.415,2.935,3.965,3.965,0,0,1-1.172,1.758,4.389,4.389,0,0,1-1.9.861,12.448,12.448,0,0,1-2.588.243H222.2a.609.609,0,0,0-.689.689V78.7a.61.61,0,0,0,.689.691h10.075q6.967,0,10.247-3.176t3.279-9.659m-9.593-9.661h-5.313a6.652,6.652,0,0,1-4.243-1.276q-1.622-1.275-1.622-5.072a8.4,8.4,0,0,1,1.483-5.244,5.032,5.032,0,0,1,4.243-1.932q5.451,0,5.452,6.832Z" transform="translate(130.892 11.124)" fill="#fff"/>
      <path id="Rectangle_1724" data-name="Rectangle 1724" d="M.429,0H9.3a.43.43,0,0,1,.43.43V46.493a.43.43,0,0,1-.43.43H.43a.43.43,0,0,1-.43-.43V.429A.429.429,0,0,1,.429,0Z" transform="translate(405.188 29.445)" fill="#fff"/>
      <path id="Path_6659" data-name="Path 6659" d="M276.2,28.181h8.557a.61.61,0,0,0,.689-.689V20.728a.61.61,0,0,0-.689-.689H276.2a.611.611,0,0,0-.691.689v6.763a.611.611,0,0,0,.691.689" transform="translate(167.283 12.167)" fill="#fff"/>
      <path id="Path_6660" data-name="Path 6660" d="M323.093,62.945a8.649,8.649,0,0,0,1.932-3.623,20.764,20.764,0,0,0,.656-5.657V49.593a20.037,20.037,0,0,0-.932-6.625,9.355,9.355,0,0,0-2.793-4.172,10.767,10.767,0,0,0-4.589-2.175,34.715,34.715,0,0,0-6.315-.76L321.4,23.856a.707.707,0,0,0-.276-.966L315.4,18.059a.657.657,0,0,0-.9.207L299.874,35.587c-.276.323-.6.678-.968,1.07a1.656,1.656,0,0,0-.553,1.069v5.657a.611.611,0,0,0,.691.691H309.4a7.331,7.331,0,0,1,4.727,1.241,4.95,4.95,0,0,1,1.483,4v3.174a12.3,12.3,0,0,1-.174,2.276,2.536,2.536,0,0,1-.725,1.416,3.176,3.176,0,0,1-1.586.723,14.177,14.177,0,0,1-2.692.207H293.456a6.188,6.188,0,0,1-3.761-1,3.6,3.6,0,0,1-1.485-2.726V37.1a.611.611,0,0,0-.689-.689H279.1a.611.611,0,0,0-.691.689V62.36q0,2.136-.138,3.795a8.462,8.462,0,0,1-.654,2.793,3.668,3.668,0,0,1-1.554,1.726,5.922,5.922,0,0,1-2.9.587H271.65a.61.61,0,0,0-.691.691v6.967a.61.61,0,0,0,.691.691h3.174q7.312,0,10.35-3.761t3.036-11.626V63.117a5.391,5.391,0,0,0,2.83,1.9,15.1,15.1,0,0,0,3.933.448h20.287a16.072,16.072,0,0,0,4.589-.587,7.18,7.18,0,0,0,3.243-1.932" transform="translate(164.519 10.904)" fill="#fff"/>
      <path id="Path_6661" data-name="Path 6661" d="M387.766,63.14q1.866-2.1,1.864-6.591V19.011a.611.611,0,0,0-.689-.689h-8.418a.61.61,0,0,0-.691.689V53.238a4.034,4.034,0,0,1-.792,2.864,3.454,3.454,0,0,1-2.52.792h-4.347a4.228,4.228,0,0,1-2.967-1.069,4.718,4.718,0,0,1-1.311-3.348c0-.275.011-.563.035-.861s.034-.609.034-.932q0-7.866-4.14-11.766t-11.11-3.9q-7.314,0-11.247,3.692T337.532,49.3v1.381q-.14,3.59-1.414,4.9a3.916,3.916,0,0,1-2.866,1.31h-3.516a6.191,6.191,0,0,1-3.761-1,3.6,3.6,0,0,1-1.485-2.726V36.883a.61.61,0,0,0-.688-.689h-8.42a.61.61,0,0,0-.689.689V62.14q0,2.136-.138,3.795a8.5,8.5,0,0,1-.656,2.793,3.664,3.664,0,0,1-1.553,1.726,5.933,5.933,0,0,1-2.9.587h-1.517a.609.609,0,0,0-.691.689V78.7a.61.61,0,0,0,.691.691H311.1q7.312,0,10.352-3.761T324.49,64V62.9a5.4,5.4,0,0,0,2.83,1.9,15.152,15.152,0,0,0,3.929.448h0q1.034,0,2.343-.1a13.761,13.761,0,0,0,2.658-.484,10.182,10.182,0,0,0,2.586-1.138,5.928,5.928,0,0,0,2-2,10.94,10.94,0,0,0,5.141,3.277,23.054,23.054,0,0,0,6.728.932,22.506,22.506,0,0,0,6.866-1,10.975,10.975,0,0,0,5.211-3.484,7.136,7.136,0,0,0,1.932,2.174,8.766,8.766,0,0,0,2.347,1.207,10.692,10.692,0,0,0,2.554.518c.833.066,1.643.095,2.436.1.018,0,.029,0,.047,0h7.453q4.349,0,6.21-2.1M356.99,55.825a6.625,6.625,0,0,1-8.523,0q-1.415-1.555-1.414-5.485,0-6.972,5.659-6.97t5.659,6.97q0,3.932-1.381,5.485" transform="translate(186.548 11.124)" fill="#fff"/>
      <path id="Path_6662" data-name="Path 6662" d="M372.694,18.322h-8.348a.611.611,0,0,0-.691.689V64.554a.609.609,0,0,0,.691.689h8.348a.61.61,0,0,0,.691-.689V19.011a.611.611,0,0,0-.691-.689" transform="translate(220.802 11.124)" fill="#fff"/>
      <path id="Path_6663" data-name="Path 6663" d="M21.473,68.647H18.722a.386.386,0,0,0-.436.437V91.36h-.175L4.659,69.084a.769.769,0,0,0-.743-.437H1.122a.388.388,0,0,0-.439.437V97.91a.386.386,0,0,0,.439.436H3.873a.385.385,0,0,0,.436-.436V75.723h.132l13.5,22.187a.765.765,0,0,0,.743.436h2.795a.386.386,0,0,0,.437-.436V69.084a.387.387,0,0,0-.437-.437" transform="translate(0.415 41.68)" fill="#fff"/>
      <path id="Path_6664" data-name="Path 6664" d="M26.266,73.811a13.813,13.813,0,0,0-4.148.567,9.452,9.452,0,0,0-2.972,1.487.483.483,0,0,0-.087.611l1.18,2.009q.219.35.612.043a8.445,8.445,0,0,1,2.094-1.07,9.082,9.082,0,0,1,2.972-.415q2.924,0,3.975.961a4.1,4.1,0,0,1,1.048,3.145v1.528a.232.232,0,0,1-.262.262h-4.76a10.039,10.039,0,0,0-6.006,1.572A5.642,5.642,0,0,0,17.75,89.4a6.482,6.482,0,0,0,.546,2.751,5.555,5.555,0,0,0,1.485,1.964A6.274,6.274,0,0,0,22.007,95.3a9.47,9.47,0,0,0,2.774.392,8.57,8.57,0,0,0,3.931-.788,5.64,5.64,0,0,0,2.271-1.964h.043v1.834a.387.387,0,0,0,.437.437h2.578a.386.386,0,0,0,.436-.437V80.929q0-3.843-1.879-5.48t-6.332-1.638M30.94,88.443a3.6,3.6,0,0,1-1.4,3.036,6.261,6.261,0,0,1-3.886,1.07,5.419,5.419,0,0,1-3.234-.831,2.835,2.835,0,0,1-1.135-2.446,2.886,2.886,0,0,1,1.223-2.6,7.445,7.445,0,0,1,3.975-.808h4.193a.233.233,0,0,1,.262.264Z" transform="translate(10.777 44.816)" fill="#fff"/>
      <path id="Path_6665" data-name="Path 6665" d="M40.95,76.6H37.633a.232.232,0,0,1-.264-.262v-5.9a.386.386,0,0,0-.437-.437H34.138a.387.387,0,0,0-.437.437v5.9a.232.232,0,0,1-.262.262H31.692a.385.385,0,0,0-.436.436v2.1a.386.386,0,0,0,.436.437h1.747a.231.231,0,0,1,.262.262V91.8a6.608,6.608,0,0,0,1.289,4.521q1.287,1.418,4.346,1.418H40.95a.385.385,0,0,0,.437-.436V94.771a.386.386,0,0,0-.437-.437h-.916A3.077,3.077,0,0,1,38,93.787a2.741,2.741,0,0,1-.633-2.118V79.834a.232.232,0,0,1,.264-.262H40.95a.386.386,0,0,0,.437-.437v-2.1a.386.386,0,0,0-.437-.436" transform="translate(18.978 42.505)" fill="#fff"/>
      <path id="Path_6666" data-name="Path 6666" d="M44.325,74.11H41.53a.386.386,0,0,0-.437.436V94.593a.386.386,0,0,0,.437.437h2.795a.386.386,0,0,0,.436-.437V74.546a.385.385,0,0,0-.436-.436" transform="translate(24.951 44.997)" fill="#fff"/>
      <path id="Path_6667" data-name="Path 6667" d="M44.446,68.647H41.475a.387.387,0,0,0-.436.437v3.189a.385.385,0,0,0,.436.436h2.972a.384.384,0,0,0,.436-.436V69.084a.386.386,0,0,0-.436-.437" transform="translate(24.918 41.68)" fill="#fff"/>
      <path id="Path_6668" data-name="Path 6668" d="M64.252,79.444a7.73,7.73,0,0,0-3.036-4.171,10.044,10.044,0,0,0-10.439,0,7.722,7.722,0,0,0-3.036,4.171,14.242,14.242,0,0,0-.524,2.271,21.372,21.372,0,0,0-.174,3.013,21.867,21.867,0,0,0,.174,3.036,14.063,14.063,0,0,0,.524,2.292,7.821,7.821,0,0,0,3.036,4.15,9.914,9.914,0,0,0,10.439,0,7.829,7.829,0,0,0,3.036-4.15,14.4,14.4,0,0,0,.524-2.292,21.866,21.866,0,0,0,.174-3.036,21.372,21.372,0,0,0-.174-3.013,14.6,14.6,0,0,0-.524-2.271M61.084,87.2a10.564,10.564,0,0,1-.37,1.813,4.664,4.664,0,0,1-1.747,2.424,5.607,5.607,0,0,1-5.942,0,4.656,4.656,0,0,1-1.747-2.424,10.564,10.564,0,0,1-.37-1.813,22,22,0,0,1-.109-2.469,21.407,21.407,0,0,1,.109-2.446,10.661,10.661,0,0,1,.37-1.79,4.649,4.649,0,0,1,1.747-2.424,5.607,5.607,0,0,1,5.942,0,4.658,4.658,0,0,1,1.747,2.424,10.661,10.661,0,0,1,.37,1.79,21.787,21.787,0,0,1,.109,2.446,22.4,22.4,0,0,1-.109,2.469" transform="translate(28.564 44.816)" fill="#fff"/>
      <path id="Path_6669" data-name="Path 6669" d="M71.419,73.811a7.5,7.5,0,0,0-3.626.807,5.735,5.735,0,0,0-2.228,2.031h-.043V74.727a.386.386,0,0,0-.436-.436h-2.8a.385.385,0,0,0-.436.436V94.775a.385.385,0,0,0,.436.436h2.8a.385.385,0,0,0,.436-.436V82.327a5.132,5.132,0,0,1,1.332-3.733,4.611,4.611,0,0,1,3.471-1.377,4.3,4.3,0,0,1,3.516,1.4A6,6,0,0,1,75,82.546V94.775a.384.384,0,0,0,.436.436h2.795a.386.386,0,0,0,.437-.436v-13.1a8.248,8.248,0,0,0-1.922-5.723,6.791,6.791,0,0,0-5.328-2.139" transform="translate(37.557 44.816)" fill="#fff"/>
      <path id="Path_6670" data-name="Path 6670" d="M84.5,73.811a13.813,13.813,0,0,0-4.148.567,9.453,9.453,0,0,0-2.972,1.487.483.483,0,0,0-.087.611l1.18,2.009q.219.35.612.043a8.444,8.444,0,0,1,2.094-1.07,9.082,9.082,0,0,1,2.972-.415q2.924,0,3.975.961a4.1,4.1,0,0,1,1.048,3.145v1.528a.232.232,0,0,1-.262.262h-4.76a10.039,10.039,0,0,0-6.006,1.572A5.642,5.642,0,0,0,75.985,89.4a6.482,6.482,0,0,0,.546,2.751,5.556,5.556,0,0,0,1.485,1.964A6.274,6.274,0,0,0,80.242,95.3a9.47,9.47,0,0,0,2.774.392,8.57,8.57,0,0,0,3.931-.788,5.64,5.64,0,0,0,2.271-1.964h.043v1.834a.387.387,0,0,0,.437.437h2.578a.386.386,0,0,0,.436-.437V80.929q0-3.843-1.879-5.48T84.5,73.811m4.674,14.632a3.6,3.6,0,0,1-1.4,3.036,6.261,6.261,0,0,1-3.886,1.07,5.419,5.419,0,0,1-3.234-.831,2.835,2.835,0,0,1-1.135-2.446,2.886,2.886,0,0,1,1.223-2.6,7.445,7.445,0,0,1,3.975-.808h4.193a.233.233,0,0,1,.262.264Z" transform="translate(46.136 44.816)" fill="#fff"/>
      <path id="Path_6671" data-name="Path 6671" d="M97.282,95.159h-.831a2.178,2.178,0,0,1-1.593-.5,2.545,2.545,0,0,1-.5-1.813V69.084a.388.388,0,0,0-.439-.437H91.123a.387.387,0,0,0-.437.437V93.062a6.175,6.175,0,0,0,1.181,4.171,5.011,5.011,0,0,0,3.93,1.332h1.485a.385.385,0,0,0,.436-.436V95.594a.385.385,0,0,0-.436-.436" transform="translate(55.062 41.68)" fill="#fff"/>
      <path id="Path_6672" data-name="Path 6672" d="M108.274,78.721a11.718,11.718,0,0,1,.175-1.353q.108-.545.241-1.025a6.75,6.75,0,0,1,2.228-3.232,6.285,6.285,0,0,1,3.93-1.136,6.046,6.046,0,0,1,3.8,1.114,8.179,8.179,0,0,1,2.316,2.859.385.385,0,0,0,.611.219l2.62-1.266a.424.424,0,0,0,.177-.566,9.677,9.677,0,0,0-3.735-4.434,11.794,11.794,0,0,0-11.99.175,9.679,9.679,0,0,0-3.668,5.263,12.94,12.94,0,0,0-.371,1.331,12.605,12.605,0,0,0-.241,1.617q-.087.938-.132,2.248t-.042,3.145q0,1.835.042,3.144t.132,2.248a12.518,12.518,0,0,0,.241,1.617,12.97,12.97,0,0,0,.371,1.332,9.685,9.685,0,0,0,3.668,5.263,10.754,10.754,0,0,0,6.2,1.725,10.639,10.639,0,0,0,5.787-1.551,9.672,9.672,0,0,0,3.735-4.433.427.427,0,0,0-.177-.567l-2.62-1.266a.386.386,0,0,0-.611.219,8.17,8.17,0,0,1-2.316,2.861,6.045,6.045,0,0,1-3.8,1.112,6.285,6.285,0,0,1-3.93-1.135,6.766,6.766,0,0,1-2.228-3.232,9.782,9.782,0,0,1-.241-1,12.543,12.543,0,0,1-.175-1.376c-.042-.538-.08-1.207-.108-2.009s-.045-1.782-.045-2.948.014-2.147.045-2.949.066-1.469.108-2.009" transform="translate(63.263 41.499)" fill="#fff"/>
      <path id="Path_6673" data-name="Path 6673" d="M136.94,81.76c-.059-.464-.125-.881-.2-1.246a9.045,9.045,0,0,0-.284-1.07,7.72,7.72,0,0,0-3.036-4.171,9.02,9.02,0,0,0-5.175-1.463,9.112,9.112,0,0,0-5.175,1.442,7.61,7.61,0,0,0-3.036,4.192,10.057,10.057,0,0,0-.5,2.207,25.708,25.708,0,0,0-.153,3.078,22.354,22.354,0,0,0,.174,3.058,11.859,11.859,0,0,0,.524,2.228,7.727,7.727,0,0,0,3.036,4.214,9.32,9.32,0,0,0,5.35,1.464,10.945,10.945,0,0,0,4.826-1,9.557,9.557,0,0,0,3.341-2.578.4.4,0,0,0-.043-.611l-1.79-1.617c-.2-.174-.423-.146-.657.088a6.95,6.95,0,0,1-2.183,1.659,7.064,7.064,0,0,1-3.187.656,5.881,5.881,0,0,1-3.32-.9,5.048,5.048,0,0,1-1.966-2.729,6.691,6.691,0,0,1-.262-1.093,9.6,9.6,0,0,1-.087-1.442.232.232,0,0,1,.262-.262h13.233c.32,0,.481-.146.481-.436,0-.786-.016-1.479-.043-2.075s-.074-1.128-.132-1.594M133.1,82.94h-9.7a.232.232,0,0,1-.262-.262,7.587,7.587,0,0,1,.305-2.359,4.585,4.585,0,0,1,1.769-2.424,5.833,5.833,0,0,1,6.07,0,4.6,4.6,0,0,1,1.77,2.424,7.636,7.636,0,0,1,.305,2.359.232.232,0,0,1-.262.262" transform="translate(72.486 44.816)" fill="#fff"/>
      <path id="Path_6674" data-name="Path 6674" d="M143.648,73.811a7.5,7.5,0,0,0-3.626.807,5.735,5.735,0,0,0-2.228,2.031h-.043V74.727a.386.386,0,0,0-.436-.436h-2.8a.385.385,0,0,0-.436.436V94.775a.385.385,0,0,0,.436.436h2.8a.385.385,0,0,0,.436-.436V82.327a5.132,5.132,0,0,1,1.332-3.733,4.611,4.611,0,0,1,3.471-1.377,4.3,4.3,0,0,1,3.517,1.4,6,6,0,0,1,1.159,3.931V94.775a.384.384,0,0,0,.436.436h2.795a.386.386,0,0,0,.437-.436v-13.1a8.248,8.248,0,0,0-1.922-5.723,6.791,6.791,0,0,0-5.328-2.139" transform="translate(81.412 44.816)" fill="#fff"/>
      <path id="Path_6675" data-name="Path 6675" d="M157.311,76.6h-3.317a.232.232,0,0,1-.264-.262v-5.9a.386.386,0,0,0-.437-.437H150.5a.387.387,0,0,0-.437.437v5.9a.232.232,0,0,1-.262.262h-1.747a.385.385,0,0,0-.436.436v2.1a.386.386,0,0,0,.436.437H149.8a.231.231,0,0,1,.262.262V91.8a6.608,6.608,0,0,0,1.289,4.521q1.287,1.418,4.346,1.418h1.615a.385.385,0,0,0,.437-.436V94.771a.386.386,0,0,0-.437-.437H156.4a3.077,3.077,0,0,1-2.031-.546,2.742,2.742,0,0,1-.633-2.118V79.834a.232.232,0,0,1,.264-.262h3.317a.386.386,0,0,0,.437-.437v-2.1a.386.386,0,0,0-.437-.436" transform="translate(89.629 42.505)" fill="#fff"/>
      <path id="Path_6676" data-name="Path 6676" d="M174.223,81.76c-.059-.464-.125-.881-.2-1.246a9.039,9.039,0,0,0-.284-1.07,7.72,7.72,0,0,0-3.036-4.171,9.02,9.02,0,0,0-5.175-1.463,9.112,9.112,0,0,0-5.175,1.442,7.61,7.61,0,0,0-3.036,4.192,10.059,10.059,0,0,0-.5,2.207,25.7,25.7,0,0,0-.153,3.078,22.354,22.354,0,0,0,.174,3.058,11.859,11.859,0,0,0,.524,2.228,7.726,7.726,0,0,0,3.036,4.214,9.319,9.319,0,0,0,5.35,1.464,10.945,10.945,0,0,0,4.826-1,9.557,9.557,0,0,0,3.341-2.578.4.4,0,0,0-.043-.611l-1.79-1.617c-.2-.174-.423-.146-.657.088a6.95,6.95,0,0,1-2.183,1.659,7.064,7.064,0,0,1-3.187.656,5.881,5.881,0,0,1-3.32-.9,5.048,5.048,0,0,1-1.966-2.729,6.693,6.693,0,0,1-.262-1.093,9.6,9.6,0,0,1-.087-1.442.232.232,0,0,1,.262-.262h13.233c.32,0,.481-.146.481-.436,0-.786-.016-1.479-.043-2.075s-.074-1.128-.132-1.594m-3.843,1.18h-9.7a.232.232,0,0,1-.262-.262,7.587,7.587,0,0,1,.305-2.359,4.585,4.585,0,0,1,1.77-2.424,5.833,5.833,0,0,1,6.07,0,4.6,4.6,0,0,1,1.769,2.424,7.636,7.636,0,0,1,.305,2.359.232.232,0,0,1-.262.262" transform="translate(95.124 44.816)" fill="#fff"/>
      <path id="Path_6677" data-name="Path 6677" d="M183.007,74.226a6.769,6.769,0,0,0-2.38-.415,6.515,6.515,0,0,0-3.473.85,5.6,5.6,0,0,0-2.075,2.208h-.043V74.727a.386.386,0,0,0-.436-.436h-2.8a.385.385,0,0,0-.436.436V94.775a.386.386,0,0,0,.436.437h2.8a.386.386,0,0,0,.436-.437V83.332a8.3,8.3,0,0,1,1.048-4.433,3.756,3.756,0,0,1,3.452-1.683,5.381,5.381,0,0,1,1.7.262,6.779,6.779,0,0,1,1.53.743.383.383,0,0,0,.609-.085L184.994,76a.432.432,0,0,0-.087-.612,5.584,5.584,0,0,0-1.9-1.157" transform="translate(104.05 44.816)" fill="#fff"/>
      <path id="Path_6678" data-name="Path 6678" d="M198.4,68.647h-1.615a6.709,6.709,0,0,0-4.828,1.508q-1.548,1.507-1.551,5.22v1.79a.231.231,0,0,1-.26.262h-1.79a.386.386,0,0,0-.437.436v2.1a.386.386,0,0,0,.437.437h1.79a.231.231,0,0,1,.26.262V97.91a.387.387,0,0,0,.439.436h2.795a.386.386,0,0,0,.437-.436V80.659a.232.232,0,0,1,.264-.262h4.06a.386.386,0,0,0,.436-.437v-2.1a.385.385,0,0,0-.436-.436h-4.06a.232.232,0,0,1-.264-.262V75.2a7.544,7.544,0,0,1,.132-1.572,1.695,1.695,0,0,1,1.44-1.443,8.046,8.046,0,0,1,1.615-.13H198.4a.385.385,0,0,0,.436-.436V69.084a.386.386,0,0,0-.436-.437" transform="translate(114.098 41.68)" fill="#fff"/>
      <path id="Path_6679" data-name="Path 6679" d="M214.038,79.444A7.73,7.73,0,0,0,211,75.274a10.044,10.044,0,0,0-10.439,0,7.722,7.722,0,0,0-3.036,4.171A14.239,14.239,0,0,0,197,81.715a21.368,21.368,0,0,0-.174,3.013A21.863,21.863,0,0,0,197,87.764a14.059,14.059,0,0,0,.524,2.292,7.82,7.82,0,0,0,3.036,4.15,9.914,9.914,0,0,0,10.439,0,7.829,7.829,0,0,0,3.036-4.15,14.411,14.411,0,0,0,.524-2.292,21.869,21.869,0,0,0,.174-3.036,21.374,21.374,0,0,0-.174-3.013,14.606,14.606,0,0,0-.524-2.271M210.87,87.2a10.565,10.565,0,0,1-.37,1.813,4.664,4.664,0,0,1-1.747,2.424,5.607,5.607,0,0,1-5.942,0,4.655,4.655,0,0,1-1.747-2.424,10.563,10.563,0,0,1-.37-1.813,22,22,0,0,1-.109-2.469,21.4,21.4,0,0,1,.109-2.446,10.659,10.659,0,0,1,.37-1.79,4.649,4.649,0,0,1,1.747-2.424,5.607,5.607,0,0,1,5.942,0,4.658,4.658,0,0,1,1.747,2.424,10.661,10.661,0,0,1,.37,1.79,21.794,21.794,0,0,1,.109,2.446,22.4,22.4,0,0,1-.109,2.469" transform="translate(119.51 44.816)" fill="#fff"/>
      <path id="Path_6680" data-name="Path 6680" d="M223.28,74.226a6.769,6.769,0,0,0-2.38-.415,6.515,6.515,0,0,0-3.473.85,5.6,5.6,0,0,0-2.075,2.208h-.043V74.727a.386.386,0,0,0-.436-.436h-2.8a.385.385,0,0,0-.436.436V94.775a.386.386,0,0,0,.436.437h2.8a.386.386,0,0,0,.436-.437V83.332a8.3,8.3,0,0,1,1.048-4.433,3.756,3.756,0,0,1,3.452-1.683,5.381,5.381,0,0,1,1.7.262,6.778,6.778,0,0,1,1.53.743.383.383,0,0,0,.609-.085L225.267,76a.432.432,0,0,0-.087-.612,5.584,5.584,0,0,0-1.9-1.157" transform="translate(128.503 44.816)" fill="#fff"/>
      <path id="Path_6681" data-name="Path 6681" d="M241.409,68.647H238.57a.526.526,0,0,0-.524.437L227.74,97.91q-.133.436.305.436H231.1a.591.591,0,0,0,.567-.436l2.271-6.464h12.012l2.271,6.464a.546.546,0,0,0,.567.436h3.057c.291,0,.394-.145.305-.436L241.978,69.084a.552.552,0,0,0-.569-.437m-6.2,19.217,4.719-13.494h.085l4.674,13.494Z" transform="translate(138.259 41.68)" fill="#fff"/>
      <path id="Path_6682" data-name="Path 6682" d="M255.747,82.94l-2.184-.22a6.555,6.555,0,0,1-3.232-.894,2.314,2.314,0,0,1-.873-1.943,2.542,2.542,0,0,1,1-2.075,4.658,4.658,0,0,1,2.97-.808,9.422,9.422,0,0,1,3.123.524,11.677,11.677,0,0,1,2.51,1.178.424.424,0,0,0,.611-.085l1.485-1.879c.177-.262.146-.464-.087-.611a11.256,11.256,0,0,0-3.211-1.66,12.851,12.851,0,0,0-4.214-.656,8.774,8.774,0,0,0-5.742,1.681,5.755,5.755,0,0,0-2.031,4.695,5.317,5.317,0,0,0,1.573,4.061,7.9,7.9,0,0,0,4.672,1.835l2.228.219a6.182,6.182,0,0,1,3.254.982,2.477,2.477,0,0,1,.807,1.945,2.793,2.793,0,0,1-1.135,2.293,5.529,5.529,0,0,1-3.451.894,9.294,9.294,0,0,1-3.6-.7,10.69,10.69,0,0,1-2.861-1.7.383.383,0,0,0-.612,0l-1.789,1.922a.383.383,0,0,0,0,.612,13.158,13.158,0,0,0,3.428,2.117,13.063,13.063,0,0,0,2.38.743,13.366,13.366,0,0,0,2.838.284q4.105,0,6.268-1.877a6.272,6.272,0,0,0,2.162-4.981,5.449,5.449,0,0,0-1.551-4.061,7.593,7.593,0,0,0-4.738-1.834" transform="translate(148.64 44.816)" fill="#fff"/>
      <path id="Path_6683" data-name="Path 6683" d="M269.063,82.94l-2.184-.22a6.555,6.555,0,0,1-3.232-.894,2.314,2.314,0,0,1-.873-1.943,2.542,2.542,0,0,1,1-2.075,4.658,4.658,0,0,1,2.97-.808,9.422,9.422,0,0,1,3.123.524,11.678,11.678,0,0,1,2.51,1.178.423.423,0,0,0,.611-.085l1.485-1.879c.177-.262.146-.464-.087-.611a11.256,11.256,0,0,0-3.211-1.66,12.85,12.85,0,0,0-4.214-.656,8.774,8.774,0,0,0-5.742,1.681,5.755,5.755,0,0,0-2.031,4.695,5.317,5.317,0,0,0,1.573,4.061,7.9,7.9,0,0,0,4.672,1.835l2.228.219a6.182,6.182,0,0,1,3.254.982,2.477,2.477,0,0,1,.807,1.945,2.793,2.793,0,0,1-1.135,2.293,5.529,5.529,0,0,1-3.451.894,9.294,9.294,0,0,1-3.6-.7,10.69,10.69,0,0,1-2.861-1.7.383.383,0,0,0-.612,0l-1.789,1.922a.383.383,0,0,0,0,.612,13.157,13.157,0,0,0,3.428,2.117,13.062,13.062,0,0,0,2.38.743,13.366,13.366,0,0,0,2.838.284q4.105,0,6.268-1.877a6.272,6.272,0,0,0,2.162-4.981,5.449,5.449,0,0,0-1.551-4.061,7.593,7.593,0,0,0-4.738-1.834" transform="translate(156.725 44.816)" fill="#fff"/>
      <path id="Path_6684" data-name="Path 6684" d="M289.2,81.76c-.06-.464-.125-.881-.2-1.246a9.063,9.063,0,0,0-.284-1.07,7.721,7.721,0,0,0-3.036-4.171,9.02,9.02,0,0,0-5.175-1.463,9.112,9.112,0,0,0-5.175,1.442,7.61,7.61,0,0,0-3.036,4.192,10.058,10.058,0,0,0-.5,2.207,25.707,25.707,0,0,0-.153,3.078,22.35,22.35,0,0,0,.174,3.058,11.858,11.858,0,0,0,.524,2.228,7.727,7.727,0,0,0,3.036,4.214,9.32,9.32,0,0,0,5.35,1.464,10.945,10.945,0,0,0,4.826-1,9.558,9.558,0,0,0,3.341-2.578.4.4,0,0,0-.043-.611l-1.79-1.617c-.2-.174-.423-.146-.657.088a6.949,6.949,0,0,1-2.183,1.659,7.064,7.064,0,0,1-3.187.656,5.881,5.881,0,0,1-3.32-.9,5.048,5.048,0,0,1-1.966-2.729,6.7,6.7,0,0,1-.262-1.093,9.609,9.609,0,0,1-.087-1.442.232.232,0,0,1,.262-.262h13.234c.32,0,.48-.146.48-.436,0-.786-.016-1.479-.043-2.075s-.074-1.128-.132-1.594m-3.843,1.18h-9.7a.232.232,0,0,1-.262-.262,7.587,7.587,0,0,1,.305-2.359,4.585,4.585,0,0,1,1.769-2.424,5.833,5.833,0,0,1,6.07,0,4.6,4.6,0,0,1,1.77,2.424,7.638,7.638,0,0,1,.305,2.359.232.232,0,0,1-.262.262" transform="translate(164.934 44.816)" fill="#fff"/>
      <path id="Path_6685" data-name="Path 6685" d="M296.291,82.94l-2.184-.22a6.555,6.555,0,0,1-3.232-.894A2.314,2.314,0,0,1,290,79.883a2.542,2.542,0,0,1,1-2.075,4.658,4.658,0,0,1,2.97-.808,9.422,9.422,0,0,1,3.123.524,11.679,11.679,0,0,1,2.51,1.178.423.423,0,0,0,.611-.085l1.485-1.879c.177-.262.146-.464-.087-.611a11.257,11.257,0,0,0-3.211-1.66,12.85,12.85,0,0,0-4.214-.656,8.774,8.774,0,0,0-5.742,1.681,5.755,5.755,0,0,0-2.031,4.695,5.317,5.317,0,0,0,1.573,4.061,7.9,7.9,0,0,0,4.672,1.835l2.228.219a6.182,6.182,0,0,1,3.255.982,2.477,2.477,0,0,1,.807,1.945,2.793,2.793,0,0,1-1.135,2.293,5.529,5.529,0,0,1-3.451.894,9.294,9.294,0,0,1-3.6-.7,10.689,10.689,0,0,1-2.861-1.7.383.383,0,0,0-.612,0L285.5,91.937a.383.383,0,0,0,0,.612,13.156,13.156,0,0,0,3.428,2.117,13.064,13.064,0,0,0,2.38.743,13.366,13.366,0,0,0,2.838.284q4.105,0,6.268-1.877a6.273,6.273,0,0,0,2.162-4.981,5.449,5.449,0,0,0-1.551-4.061,7.593,7.593,0,0,0-4.738-1.834" transform="translate(173.258 44.816)" fill="#fff"/>
      <path id="Path_6686" data-name="Path 6686" d="M309.607,82.94l-2.184-.22a6.555,6.555,0,0,1-3.232-.894,2.314,2.314,0,0,1-.873-1.943,2.542,2.542,0,0,1,1-2.075,4.658,4.658,0,0,1,2.97-.808,9.421,9.421,0,0,1,3.123.524,11.678,11.678,0,0,1,2.51,1.178.423.423,0,0,0,.611-.085l1.485-1.879c.177-.262.146-.464-.087-.611a11.255,11.255,0,0,0-3.211-1.66,12.85,12.85,0,0,0-4.214-.656,8.774,8.774,0,0,0-5.742,1.681,5.755,5.755,0,0,0-2.031,4.695,5.317,5.317,0,0,0,1.573,4.061,7.9,7.9,0,0,0,4.672,1.835l2.228.219a6.182,6.182,0,0,1,3.255.982,2.477,2.477,0,0,1,.807,1.945,2.793,2.793,0,0,1-1.135,2.293,5.529,5.529,0,0,1-3.451.894,9.294,9.294,0,0,1-3.6-.7,10.689,10.689,0,0,1-2.861-1.7.383.383,0,0,0-.612,0l-1.789,1.922a.383.383,0,0,0,0,.612,13.157,13.157,0,0,0,3.428,2.117,13.063,13.063,0,0,0,2.38.743,13.366,13.366,0,0,0,2.838.284q4.106,0,6.268-1.877a6.272,6.272,0,0,0,2.162-4.981,5.449,5.449,0,0,0-1.551-4.061,7.593,7.593,0,0,0-4.738-1.834" transform="translate(181.343 44.816)" fill="#fff"/>
      <path id="Path_6687" data-name="Path 6687" d="M335.466,73.811a8.512,8.512,0,0,0-4.04.873,7.866,7.866,0,0,0-2.729,2.4h-.043a6.093,6.093,0,0,0-2.425-2.425,8.491,8.491,0,0,0-7.316-.043,5.735,5.735,0,0,0-2.228,2.031h-.043V74.727a.386.386,0,0,0-.436-.436h-2.8a.385.385,0,0,0-.436.436V94.775a.385.385,0,0,0,.436.436h2.8a.385.385,0,0,0,.436-.436V82.327a5.133,5.133,0,0,1,1.332-3.733,4.611,4.611,0,0,1,3.472-1.377,4.3,4.3,0,0,1,3.517,1.4,6,6,0,0,1,1.159,3.931V94.775a.384.384,0,0,0,.436.436h2.795a.386.386,0,0,0,.437-.436V82.327a5.085,5.085,0,0,1,1.355-3.733,4.624,4.624,0,0,1,3.449-1.377,4.3,4.3,0,0,1,3.517,1.4,6,6,0,0,1,1.157,3.931V94.775a.385.385,0,0,0,.437.436H342.5a.385.385,0,0,0,.436-.436v-13.1a8.306,8.306,0,0,0-1.9-5.723,7.056,7.056,0,0,0-5.569-2.139" transform="translate(190.03 44.816)" fill="#fff"/>
      <path id="Path_6688" data-name="Path 6688" d="M352.706,81.76c-.059-.464-.125-.881-.2-1.246a9.033,9.033,0,0,0-.284-1.07,7.72,7.72,0,0,0-3.036-4.171,9.02,9.02,0,0,0-5.175-1.463,9.111,9.111,0,0,0-5.175,1.442,7.61,7.61,0,0,0-3.036,4.192,10.061,10.061,0,0,0-.5,2.207,25.707,25.707,0,0,0-.153,3.078,22.356,22.356,0,0,0,.174,3.058,11.86,11.86,0,0,0,.524,2.228,7.727,7.727,0,0,0,3.036,4.214,9.32,9.32,0,0,0,5.35,1.464,10.945,10.945,0,0,0,4.826-1A9.557,9.557,0,0,0,352.4,92.11a.4.4,0,0,0-.043-.611l-1.79-1.617c-.2-.174-.423-.146-.657.088a6.949,6.949,0,0,1-2.183,1.659,7.064,7.064,0,0,1-3.187.656,5.881,5.881,0,0,1-3.32-.9,5.048,5.048,0,0,1-1.966-2.729,6.69,6.69,0,0,1-.262-1.093,9.6,9.6,0,0,1-.087-1.442.232.232,0,0,1,.262-.262H352.4c.32,0,.481-.146.481-.436,0-.786-.016-1.479-.043-2.075s-.074-1.128-.132-1.594m-3.843,1.18h-9.7a.232.232,0,0,1-.262-.262,7.587,7.587,0,0,1,.305-2.359,4.585,4.585,0,0,1,1.77-2.424,5.833,5.833,0,0,1,6.07,0,4.6,4.6,0,0,1,1.77,2.424,7.635,7.635,0,0,1,.305,2.359.232.232,0,0,1-.262.262" transform="translate(203.494 44.816)" fill="#fff"/>
      <path id="Path_6689" data-name="Path 6689" d="M359.414,73.811a7.5,7.5,0,0,0-3.626.807,5.735,5.735,0,0,0-2.228,2.031h-.043V74.727a.386.386,0,0,0-.436-.436h-2.8a.385.385,0,0,0-.436.436V94.775a.385.385,0,0,0,.436.436h2.8a.385.385,0,0,0,.436-.436V82.327a5.132,5.132,0,0,1,1.332-3.733,4.611,4.611,0,0,1,3.471-1.377,4.3,4.3,0,0,1,3.517,1.4A6,6,0,0,1,363,82.546V94.775a.384.384,0,0,0,.436.436h2.795a.386.386,0,0,0,.437-.436v-13.1a8.248,8.248,0,0,0-1.922-5.723,6.791,6.791,0,0,0-5.328-2.139" transform="translate(212.42 44.816)" fill="#fff"/>
      <path id="Path_6690" data-name="Path 6690" d="M373.078,76.6H369.76a.232.232,0,0,1-.264-.262v-5.9a.386.386,0,0,0-.437-.437h-2.795a.387.387,0,0,0-.437.437v5.9a.232.232,0,0,1-.262.262h-1.747a.385.385,0,0,0-.436.436v2.1a.386.386,0,0,0,.436.437h1.747a.231.231,0,0,1,.262.262V91.8a6.608,6.608,0,0,0,1.289,4.521q1.287,1.418,4.346,1.418h1.615a.385.385,0,0,0,.437-.436V94.771a.386.386,0,0,0-.437-.437h-.916a3.077,3.077,0,0,1-2.031-.546,2.741,2.741,0,0,1-.633-2.118V79.834a.232.232,0,0,1,.264-.262h3.317a.386.386,0,0,0,.437-.437v-2.1a.386.386,0,0,0-.437-.436" transform="translate(220.637 42.505)" fill="#fff"/>
      <path id="Path_6691" data-name="Path 6691" d="M420.4,26h34.422c-28.108,18.952-28.952,33.677-28.789,74.529,8.581,0,35.25-2.332,35.2-31.46,1.495-.779,3.266-2.242,4.643-6.287V89.456s6.122-3.271,6.123-29.008V53.115c2.281-1.334,3.356-3.947,4.132-6.485V89.456s6.131-3.271,6.131-29.008V35.727a17.182,17.182,0,0,0,4.815-8.974v79.279H420.4Zm91.554,82.345a6.613,6.613,0,1,1-6.615,6.61,6.617,6.617,0,0,1,6.615-6.61m15.633,0a6.613,6.613,0,1,1-6.614,6.61,6.609,6.609,0,0,1,6.614-6.61m22.329-98.21a6.614,6.614,0,1,1-6.615,6.612,6.613,6.613,0,0,1,6.615-6.612m15.628,0a6.614,6.614,0,1,1-6.615,6.612,6.611,6.611,0,0,1,6.615-6.612M562.839,26c3.435,0,8.145,0,11.581,0q0,40.016,0,80.028H491.252V26h34.424c-28.111,18.952-28.956,33.677-28.792,74.529,8.579,0,35.247-2.332,35.205-31.46l4.523-4.606v35.909c25.924,4.026,33.493-22.192,32.367-26.33a.291.291,0,0,0,.14-.172A24.347,24.347,0,1,1,562.839,26" transform="translate(255.258 6.156)" fill="#fff" fill-rule="evenodd"/>
      <path id="Path_6692" data-name="Path 6692" d="M581.136,144.022l-152.548,0a20.278,20.278,0,0,1-20.454-20.053V20.051A20.277,20.277,0,0,1,428.587,0H581.136a20.279,20.279,0,0,1,20.456,20.051v103.92a20.279,20.279,0,0,1-20.456,20.051M428.587,5.468a14.746,14.746,0,0,0-14.873,14.583v103.92a14.744,14.744,0,0,0,14.873,14.582H581.136a14.744,14.744,0,0,0,14.873-14.582V20.051A14.744,14.744,0,0,0,581.136,5.468Z" transform="translate(247.808 0)" fill="#fff"/>
    </g>
  </g>
</svg>
